Coordinates
version=1
nRows=22
nColumns=24
inDegrees=yes

Units are S.I. units (second, meters, Newtons, ...)
Angles are in degrees.

endheader
time	pelvis_tilt	pelvis_list	pelvis_rotation	pelvis_tx	pelvis_ty	pelvis_tz	hip_flexion_r	hip_adduction_r	hip_rotation_r	knee_angle_r	ankle_angle_r	subtalar_angle_r	mtp_angle_r	hip_flexion_l	hip_adduction_l	hip_rotation_l	knee_angle_l	ankle_angle_l	subtalar_angle_l	mtp_angle_l	lumbar_extension	lumbar_bending	lumbar_rotation
      0.52100000	     -0.26661110	      5.14870752	      3.31448602	     -0.71962895	      0.97314333	      0.28565428	     26.84234363	     -3.82317469	     -8.34310221	     -6.49833424	      8.54058457	     -0.89428877	      0.86212454	    -17.43756971	      9.01668403	      5.04770928	     -4.84182116	     11.82897191	     -5.08922178	      0.18308765	     -1.90210805	     -3.72510130	     -2.38758320
      0.52516667	     -0.26463287	      5.09363116	      3.35501987	     -0.71340313	      0.97257701	      0.28581806	     26.76396920	     -3.72628047	     -8.48837886	     -6.54472125	      8.19665393	     -1.09181900	      5.85356459	    -17.55164054	      8.91866747	      4.85332336	     -5.35170692	     11.85068666	     -4.78007437	     -0.21615336	     -1.85395963	     -3.63811185	     -2.33334621
      0.52933333	     -0.35401312	      5.09128054	      3.42500848	     -0.70723687	      0.97191689	      0.28590734	     26.84148911	     -3.71241526	     -8.63115132	     -6.79771583	      8.09708204	     -1.15114321	      5.88545125	    -17.55582417	      8.88797830	      4.85898398	     -5.89032615	     11.80631720	     -4.77992898	     -0.19893917	     -1.70175439	     -3.62331487	     -2.41285692
      0.53350000	     -0.38515472	      5.05909288	      3.46829377	     -0.70097967	      0.97137475	      0.28603082	     26.84473411	     -3.65805997	     -8.74186507	     -7.08371014	      7.85828217	     -1.25495696	      5.91436529	    -17.62562393	      8.82443994	      4.81220513	     -6.41497905	     11.70357873	     -4.71755102	     -0.17331717	     -1.61347791	     -3.55519663	     -2.44821299
      0.53766667	     -0.38782163	      5.02356492	      3.49412543	     -0.69468246	      0.97090678	      0.28617597	     26.81630551	     -3.59491693	     -8.80166415	     -7.42454274	      7.66077578	     -1.35380123	      5.92548692	    -17.71141288	      8.76066197	      4.75115922	     -6.96520587	     11.54257254	     -4.73855473	     -0.16128888	     -1.56314493	     -3.50143251	     -2.45872386
      0.54183333	     -0.48398827	      4.98713483	      3.53743099	     -0.68836991	      0.97036628	      0.28634032	     26.87406012	     -3.53241806	     -8.77065567	     -7.78194391	      7.30631791	     -1.69315396	      6.09085531	    -17.61066761	      8.68695111	      4.54191652	     -7.68179337	     11.50226934	     -4.37459629	      0.03164672	     -1.36969978	     -3.42989141	     -2.53285057
      0.54600000	     -0.51345059	      4.94973438	      3.55682116	     -0.68199994	      0.96994887	      0.28648189	     26.87772015	     -3.47392914	     -8.79041705	     -8.21644997	      6.88722233	     -1.84890825	      6.14163142	    -17.62828292	      8.62530913	      4.49412831	     -8.30145805	     11.29783965	     -4.36849676	      0.10452171	     -1.26662676	     -3.35211760	     -2.52791670
      0.55016667	     -0.57705521	      4.90905354	      3.57725074	     -0.67560739	      0.96953893	      0.28664199	     26.91528695	     -3.41150155	     -8.75943256	     -8.68449585	      6.45398326	     -2.08872672	      6.20873740	    -17.56821222	      8.55863601	      4.39896535	     -8.99712441	     11.07860593	     -4.28662747	      0.21131154	     -1.11807573	     -3.27699105	     -2.53268797
      0.55433333	     -0.64062029	      4.84945288	      3.57254972	     -0.66920475	      0.96915919	      0.28687690	     26.93745871	     -3.30547308	     -8.58885972	     -9.15126651	      6.05729326	     -2.58752825	      6.41393591	    -17.44220787	      8.46987361	      4.17109173	     -9.81336153	     10.93256528	     -4.07320224	      0.55593264	     -0.96251913	     -3.18250807	     -2.53235655
      0.55850000	     -0.67945925	      4.80169935	      3.59179079	     -0.66275697	      0.96889490	      0.28705034	     26.92191437	     -3.23521036	     -8.51782832	     -9.62324029	      5.51569480	     -2.82918801	      6.53168727	    -17.35499110	      8.39120551	      4.08251614	    -10.59652088	     10.59858795	     -4.02826929	      0.79027644	     -0.83347815	     -3.10434410	     -2.50328056
      0.56266667	     -0.74979623	      4.74872102	      3.59048509	     -0.65630191	      0.96862089	      0.28726545	     26.95703251	     -3.15165028	     -8.39007850	    -10.15243951	      5.00462061	     -3.19639988	      6.66881930	    -17.19172672	      8.31059846	      3.93175048	    -11.45274882	     10.27757645	     -3.91178668	      1.10148987	     -0.66617864	     -3.01747040	     -2.47669218
      0.56683333	     -0.79567389	      4.67873044	      3.57335276	     -0.64981913	      0.96842722	      0.28751251	     26.95535416	     -3.04146730	     -8.23230272	    -10.67599640	      4.45907618	     -3.60803121	      6.82496298	    -17.02492038	      8.20967485	      3.74901029	    -12.35425430	      9.91544714	     -3.77005242	      1.50852055	     -0.52268133	     -2.90758618	     -2.43044089
      0.57100000	     -0.83690708	      4.58112811	      3.54171145	     -0.64330786	      0.96829169	      0.28782797	     26.94419783	     -2.88619608	     -8.00471735	    -11.21947544	      4.04078823	     -4.31209614	      7.19195903	    -16.82204506	      8.06809067	      3.47738053	    -13.31397267	      9.49478552	     -3.47449701	      2.59995198	     -0.37715099	     -2.75783273	     -2.36940009
      0.57516667	     -0.82801175	      4.46964498	      3.51037311	     -0.63676163	      0.96829247	      0.28811074	     26.85366366	     -2.72745356	     -7.85242424	    -11.70486414	      3.35974711	     -4.73463572	      8.44804111	    -16.65940132	      7.91321615	      3.26209549	    -14.28390336	      8.95515561	     -3.43330515	      7.15806722	     -0.29195039	     -2.58473988	     -2.31394011
      0.57933333	     -0.87658554	      4.42233072	      3.47075967	     -0.63025254	      0.96824045	      0.28834650	     26.90066711	     -2.66462242	     -7.80017750	    -12.36687090	      2.88148834	     -4.79033096	      8.44558747	    -16.41917083	      7.84641369	      3.15215884	    -15.27923723	      8.34050428	     -3.43350520	      7.20463435	     -0.14390820	     -2.49346695	     -2.29009852
      0.58350000	     -0.94978471	      4.35138737	      3.45055355	     -0.62379335	      0.96820937	      0.28862912	     26.92988469	     -2.56468112	     -7.64502693	    -12.94216005	      2.39458374	     -5.06249762	      8.44291335	    -16.05390031	      7.73516441	      2.95534590	    -16.45518702	      7.80690982	     -3.29022527	      7.35276959	      0.04014109	     -2.39666836	     -2.22160011
      0.58766667	     -0.99137557	      4.23679249	      3.39864628	     -0.61732687	      0.96825251	      0.28899184	     26.93489396	     -2.40062607	     -7.44978757	    -13.54812948	      1.97328849	     -5.58202157	      8.43164881	    -15.68402337	      7.56926441	      2.67416154	    -17.68151042	      7.26565649	     -3.05329636	      7.70279700	      0.17970137	     -2.22666223	     -2.14604390
      0.59183333	     -0.98717517	      4.12405695	      3.35426799	     -0.61080117	      0.96844758	      0.28930340	     26.87461445	     -2.25757663	     -7.35049338	    -14.13623303	      1.56276032	     -5.74843737	      8.41805241	    -15.37314061	      7.40897373	      2.50250598	    -18.85836748	      6.45694499	     -2.96762417	      7.85586441	      0.26533614	     -2.05606127	     -2.10265430
      0.59600000	     -1.02856549	      3.98856628	      3.31041309	     -0.60439665	      0.96859354	      0.28972264	     26.84112596	     -2.05896226	     -7.07809012	    -14.67142088	      1.22168722	     -6.38298482	      7.98788701	    -14.89663393	      7.19856076	      2.18752628	    -20.23549893	      5.71784998	     -2.80305884	     13.05021711	      0.41436795	     -1.88264877	     -2.01544496
      0.60016667	     -1.03542558	      3.86319952	      3.26855684	     -0.59797383	      0.96881842	      0.29009326	     26.79679473	     -1.90370263	     -6.97505820	    -15.26963137	      0.90003537	     -6.53293291	      7.97063578	    -14.43942126	      6.99868617	      1.92712116	    -21.63326979	      4.94027470	     -2.56619970	     13.10945255	      0.51458847	     -1.71679584	     -1.95042375
      0.60433333	     -1.04091172	      3.71270526	      3.21471260	     -0.59160661	      0.96906322	      0.29051441	     26.75692034	     -1.70827517	     -6.82734384	    -15.88372473	      0.66439664	     -6.91204345	      7.92463154	    -13.93027869	      6.76542383	      1.64125049	    -23.10811207	      4.15962571	     -2.31691518	     13.28045952	      0.60085763	     -1.51222748	     -1.87630522
      0.60850000	     -1.00913740	      3.52341192	      3.15100958	     -0.58524397	      0.96942660	      0.29100817	     26.62741799	     -1.44548462	     -6.58585188	    -16.39771730	      0.47348539	     -7.43415315	      7.73827379	    -13.42706642	      6.47714729	      1.34029894	    -24.61460153	      3.25730020	     -2.09529125	     13.94695457	      0.64833457	     -1.26988166	     -1.80438467
